<svg width="31" height="24" viewBox="0 0 31 24" fill="none" xmlns="http://www.w3.org/2000/svg">
<path d="M9.07563 2.76923C9.07563 1.74963 9.88829 0.923077 10.8908 0.923077H29.042C30.0445 0.923077 30.8571 1.74963 30.8571 2.76923C30.8571 3.78883 30.0445 4.61538 29.042 4.61538H10.8908C9.88829 4.61538 9.07563 3.78883 9.07563 2.76923Z" fill="#2B637B"/>
<path d="M9.07563 12C9.07563 10.9804 9.88829 10.1538 10.8908 10.1538H29.042C30.0445 10.1538 30.8571 10.9804 30.8571 12C30.8571 13.0196 30.0445 13.8462 29.042 13.8462H10.8908C9.88829 13.8462 9.07563 13.0196 9.07563 12Z" fill="#2B637B"/>
<path d="M9.07563 21.2308C9.07563 20.2112 9.88829 19.3846 10.8908 19.3846H29.042C30.0445 19.3846 30.8571 20.2112 30.8571 21.2308C30.8571 22.2504 30.0445 23.0769 29.042 23.0769H10.8908C9.88829 23.0769 9.07563 22.2504 9.07563 21.2308Z" fill="#2B637B"/>
<path d="M5.44538 2.76923C5.44538 4.29863 4.22639 5.53846 2.72269 5.53846C1.21899 5.53846 0 4.29863 0 2.76923C0 1.23983 1.21899 0 2.72269 0C4.22639 0 5.44538 1.23983 5.44538 2.76923Z" fill="#2B637B"/>
<path d="M5.44538 21.2308C5.44538 22.7602 4.22639 24 2.72269 24C1.21899 24 0 22.7602 0 21.2308C0 19.7014 1.21899 18.4615 2.72269 18.4615C4.22639 18.4615 5.44538 19.7014 5.44538 21.2308Z" fill="#2B637B"/>
<path d="M5.44538 12C5.44538 13.5294 4.22639 14.7692 2.72269 14.7692C1.21899 14.7692 0 13.5294 0 12C0 10.4706 1.21899 9.23077 2.72269 9.23077C4.22639 9.23077 5.44538 10.4706 5.44538 12Z" fill="#2B637B"/>
</svg>
